# xmcd
#
# Track frame offsets: 
#        150
#        11237
#        32859
#        51027
#        65309
#        82306
#        99846
#        112086
#        142020
#        153824
#        178496
#        196910
#        212852
#        227108
#        241869
#        258305
#        274544
#        289278
#        308526
#        335615
#
# Disc length: 4818 seconds
#
# Revision: 0
# Processed by: cddbd v1.5.2PL0 Copyright (c) Steve Scherf et al.
# Submitted via: ExactAudioCopyFreeDBPlugin 1.0
#
DISCID=2612d014
DTITLE=James Last - The very best of
DYEAR=2019
DGENRE=No, thanks.
TTITLE0=Fanfare For The Common Man (Live @ Palast der Republik, 1987)
TTITLE1=Alone
TTITLE2=Tipitipitipso
TTITLE3=Paradiso
TTITLE4=Erinnerungen
TTITLE5=Love Story
TTITLE6=The Last Waltz
TTITLE7=Rosen aus dem Süden
TTITLE8=Ayacucho
TTITLE9=Romance No. 2 and Theme From 'Elvira Madigan'
TTITLE10=Biscaya
TTITLE11=Paradiesvogel
TTITLE12=Root Beer Rag
TTITLE13=Prelude No.6 In D Minor
TTITLE14=Spiel noch einmal für mich, Habanero
TTITLE15=The Seduction (Love Theme)
TTITLE16=Ballade Pour Adeline
TTITLE17=Rise (Single Version)
TTITLE18=The Living Years
TTITLE19=Der einsame Hirte
EXTD=
EXTT0=
EXTT1=
EXTT2=
EXTT3=
EXTT4=
EXTT5=
EXTT6=
EXTT7=
EXTT8=
EXTT9=
EXTT10=
EXTT11=
EXTT12=
EXTT13=
EXTT14=
EXTT15=
EXTT16=
EXTT17=
EXTT18=
EXTT19=
PLAYORDER=
